/* XPM */
static char *yandex_48[] = {
/* columns rows colors chars-per-pixel */
"48 48 123 2 ",
"   c None",
".  c #EC191E",
"X  c #ED1A1F",
"o  c #ED1B20",
"O  c #ED1B21",
"+  c #ED1C21",
"@  c #ED1C22",
"#  c #ED1D22",
"$  c #ED1E23",
"%  c #ED1E24",
"&  c #ED1F24",
"*  c #ED2025",
"=  c #ED2227",
"-  c #ED2328",
";  c #EE252A",
":  c #EE262B",
">  c #EE272C",
",  c #EE282C",
"<  c #EE2A2E",
"1  c #EE2B2F",
"2  c #EE2E33",
"3  c #EE2F34",
"4  c #EF353A",
"5  c #EF383C",
"6  c #EF393E",
"7  c #EF3A3E",
"8  c #EF3D41",
"9  c #EF3E42",
"0  c #F04145",
"q  c #F04246",
"w  c #F04347",
"e  c #F04348",
"r  c #F04549",
"t  c #F0454A",
"y  c #F0464A",
"u  c #F0494D",
"i  c #F04A4E",
"p  c #F14B4F",
"a  c #F14C4F",
"s  c #F14D51",
"d  c #F15054",
"f  c #F15155",
"g  c #F15256",
"h  c #F15357",
"j  c #F1565A",
"k  c #F2585C",
"l  c #F25C5F",
"z  c #F26367",
"x  c #F36467",
"c  c #F36468",
"v  c #F3676A",
"b  c #F36D71",
"n  c #F36F72",
"m  c #F4787B",
"M  c #F4797C",
"N  c #F58083",
"B  c #F58184",
"V  c #F58587",
"C  c #F5898B",
"Z  c #F68A8C",
"A  c #F68B8D",
"S  c #F68C8F",
"D  c #F69093",
"F  c #F69497",
"G  c #F69597",
"H  c #F79699",
"J  c #F7999B",
"K  c #F79D9F",
"L  c #F7A1A3",
"P  c #F8A3A5",
"I  c #F8A4A6",
"U  c #F8AAAC",
"Y  c #F8AEAF",
"T  c #F8AEB0",
"R  c #F9B2B4",
"E  c #F9B5B7",
"W  c #F9B6B8",
"Q  c #F9B8B9",
"!  c #F9B9BA",
"~  c #F9BABC",
"^  c #F9BBBC",
"/  c #FABBBD",
"(  c #FABEBF",
")  c #FAC0C1",
"_  c #FAC4C5",
"`  c #FBC7C8",
"'  c #FBC7C9",
"]  c #FBC8C9",
"[  c #FBCBCC",
"{  c #FBCECF",
"}  c #FCD5D6",
"|  c #FCD6D7",
" . c #FCDDDE",
".. c #FCDFE0",
"X. c #FCE0E0",
"o. c #FDE1E2",
"O. c #FDE3E4",
"+. c #FDE4E4",
"@. c #FDE6E7",
"#. c #FDE8E8",
"$. c #FDE8E9",
"%. c #FDEAEA",
"&. c #FEEDEE",
"*. c #FEEEEE",
"=. c #FEEEEF",
"-. c #FEEFEF",
";. c #FEEFF0",
":. c #FEF0F0",
">. c #FEF1F1",
",. c #FEF2F2",
"<. c #FEF2F3",
"1. c #FEF3F3",
"2. c #FEF4F4",
"3. c #FEF5F5",
"4. c #FEF6F7",
"5. c #FEF9F9",
"6. c snow",
"7. c #FFFBFB",
"8. c #FFFBFC",
"9. c #FFFCFC",
"0. c #FFFDFD",
"q. c #FFFEFE",
"w. c white",
/* pixels */
"    & & & & & & & & & & & & & & & & & & & & & & & & & & & & & & & & & & & & & & & & & & & &     ",
"  & & & & & & & & & & & & & & & & & & & & & & & & & & & & & & & & & & & & & & & & & & & & & &   ",
"& & & & & & & & & & & & & & & & & & & & & & & & & & & & & & & & & & & & & & & & & & & & & & & & ",
"& & & & & & & & & & & & & & & & & & & & & & & & & & & & & & & & & & & & & & & & & & & & & & & & ",
"& & & & & & & & & & & & & & & & & & & & & & & & & & & & & & & & & & & & & & & & & & & & & & & & ",
"& & & & & & & & & & & & & & & & & & & & & & & & & & & & & & & & & & & & & & & & & & & & & & & & ",
"& & & & & & & & & & & & & & & & & & & & & & & & & & & & & & & & & & & & & & & & & & & & & & & & ",
"& & & & & & & & & & & & & & & & & & & & & & & & & & & & & & & & & & & & & & & & & & & & & & & & ",
"& & & & & & & & & & & & & & & & & & & & & & & $ # + + + + # & & & & & & & & & & & & & & & & & & ",
"& & & & & & & & & & & & & & & & & & & & & + = 4 y p p p p 8 * & & & & & & & & & & & & & & & & & ",
"& & & & & & & & & & & & & & & & & & & $ = l T  .*.>.>.>.2.~ : & & & & & & & & & & & & & & & & & ",
"& & & & & & & & & & & & & & & & & & $ < G <.w.w.q.0.0.w.w.] > % & & & & & & & & & & & & & & & & ",
"& & & & & & & & & & & & & & & & & & - H 9.w.&.P n c N 1.w.' > % & & & & & & & & & & & & & & & & ",
"& & & & & & & & & & & & & & & & & + z 2.w.$.x & o . w &.w.' > % & & & & & & & & & & & & & & & & ",
"& & & & & & & & & & & & & & & & $ , ( w.q.V @ & & # y *.w.' > % & & & & & & & & & & & & & & & & ",
"& & & & & & & & & & & & & & & & + s ;.w.X.7 # & & # y *.w.' > % & & & & & & & & & & & & & & & & ",
"& & & & & & & & & & & & & & & & o m w.w.E = & & & # y *.w.' > % & & & & & & & & & & & & & & & & ",
"& & & & & & & & & & & & & & & & # J w.w.H # & & & # y *.w.' > % & & & & & & & & & & & & & & & & ",
"& & & & & & & & & & & & & & & & & U w.w.C + & & & # y *.w.' > % & & & & & & & & & & & & & & & & ",
"& & & & & & & & & & & & & & & & * Y w.w.Z + & & & # y *.w.' > % & & & & & & & & & & & & & & & & ",
"& & & & & & & & & & & & & & & & $ L w.w.K # & & & # y *.w.' > % & & & & & & & & & & & & & & & & ",
"& & & & & & & & & & & & & & & & + B w.w._ > $ & & # y *.w.' > % & & & & & & & & & & & & & & & & ",
"& & & & & & & & & & & & & & & & + f >.w.;.g O & & # y *.w.' > % & & & & & & & & & & & & & & & & ",
"& & & & & & & & & & & & & & & & $ > ! w.w.~ 3 O $ + t *.w.' > % & & & & & & & & & & & & & & & & ",
"& & & & & & & & & & & & & & & & & + h #.w.0.Q d 1 = i =.w.' > % & & & & & & & & & & & & & & & & ",
"& & & & & & & & & & & & & & & & & & $ b %.w.w.-.{ ) [ 6.w.' > % & & & & & & & & & & & & & & & & ",
"& & & & & & & & & & & & & & & & & & & $ k _ 7.w.w.w.w.w.w.' > % & & & & & & & & & & & & & & & & ",
"& & & & & & & & & & & & & & & & & & & & X h :.w.:.R ^ 5.w.' > % & & & & & & & & & & & & & & & & ",
"& & & & & & & & & & & & & & & & & & & & = I w.w.L & y *.w.' > % & & & & & & & & & & & & & & & & ",
"& & & & & & & & & & & & & & & & & & & + j -.w.$.u X y *.w.' > % & & & & & & & & & & & & & & & & ",
"& & & & & & & & & & & & & & & & & & $ > W w.w.K * + y *.w.' > % & & & & & & & & & & & & & & & & ",
"& & & & & & & & & & & & & & & & & & + v 4.w.@.y # # y *.w.' > % & & & & & & & & & & & & & & & & ",
"& & & & & & & & & & & & & & & & & $ 2 ` w.w.J & & # y *.w.' > % & & & & & & & & & & & & & & & & ",
"& & & & & & & & & & & & & & & & & + M 8.w.+.e # & # y *.w.' > % & & & & & & & & & & & & & & & & ",
"& & & & & & & & & & & & & & & & # 5 | w.w.F $ & & # y *.w.' > % & & & & & & & & & & & & & & & & ",
"& & & & & & & & & & & & & & & & $ S w.w.o.0 # & & # y *.w.' > % & & & & & & & & & & & & & & & & ",
"& & & & & & & & & & & & & & & # r O.w.w.D $ & & & # y *.w.] > % & & & & & & & & & & & & & & & & ",
"& & & & & & & & & & & & & & & # A 1.,.} 9 # & & & # q ..3./ : & & & & & & & & & & & & & & & & & ",
"& & & & & & & & & & & & & & & & 6 p p 8 & & & & & & ; y a 9 * & & & & & & & & & & & & & & & & & ",
"& & & & & & & & & & & & & & & & # + + # & & & & & & & # + # & & & & & & & & & & & & & & & & & & ",
"& & & & & & & & & & & & & & & & & & & & & & & & & & & & & & & & & & & & & & & & & & & & & & & & ",
"& & & & & & & & & & & & & & & & & & & & & & & & & & & & & & & & & & & & & & & & & & & & & & & & ",
"& & & & & & & & & & & & & & & & & & & & & & & & & & & & & & & & & & & & & & & & & & & & & & & & ",
"& & & & & & & & & & & & & & & & & & & & & & & & & & & & & & & & & & & & & & & & & & & & & & & & ",
"& & & & & & & & & & & & & & & & & & & & & & & & & & & & & & & & & & & & & & & & & & & & & & & & ",
"& & & & & & & & & & & & & & & & & & & & & & & & & & & & & & & & & & & & & & & & & & & & & & & & ",
"  & & & & & & & & & & & & & & & & & & & & & & & & & & & & & & & & & & & & & & & & & & & & & &   ",
"    & & & & & & & & & & & & & & & & & & & & & & & & & & & & & & & & & & & & & & & & & & & &     "
};
